<svg xmlns="http://www.w3.org/2000/svg" width="1200" height="520" viewBox="0 0 1200 520" role="img" aria-label="Top Heroes Companion data flow diagram">
  <defs>
    <marker id="arrow" markerWidth="10" markerHeight="10" refX="8" refY="3" orient="auto">
      <path d="M0,0 L10,3 L0,6 Z" fill="#6BB7FF" />
    </marker>
  </defs>

  <rect width="1200" height="520" fill="#0D1117" />

  <text x="60" y="55" font-family="Verdana, sans-serif" font-size="20" fill="#E6EDF3">Top Heroes Companion — Data Flow</text>

  <g font-family="Verdana, sans-serif" font-size="14" fill="#E6EDF3">
    <rect x="70" y="90" width="250" height="80" rx="16" fill="#161B22" stroke="#30363D" />
    <text x="90" y="135">Hero Database</text>

    <rect x="370" y="90" width="250" height="80" rx="16" fill="#161B22" stroke="#30363D" />
    <text x="395" y="125">Roster Manager</text>
    <text x="395" y="145" font-size="12" fill="#9CA3AF">Levels, stars, edits</text>

    <rect x="670" y="90" width="250" height="80" rx="16" fill="#161B22" stroke="#30363D" />
    <text x="700" y="125">Queue Builder</text>
    <text x="700" y="145" font-size="12" fill="#9CA3AF">Heroes, pets, relics</text>

    <rect x="970" y="90" width="180" height="80" rx="16" fill="#161B22" stroke="#30363D" />
    <text x="990" y="125">Events & Codes</text>
    <text x="990" y="145" font-size="12" fill="#9CA3AF">Checklists, rewards</text>
  </g>

  <g font-family="Verdana, sans-serif" font-size="14" fill="#E6EDF3">
    <rect x="270" y="230" width="250" height="80" rx="16" fill="#161B22" stroke="#30363D" />
    <text x="295" y="265">Dashboard & Insights</text>
    <text x="295" y="285" font-size="12" fill="#9CA3AF">Power, factions, alerts</text>

    <rect x="680" y="230" width="250" height="80" rx="16" fill="#161B22" stroke="#30363D" />
    <text x="705" y="265">Settings & Backups</text>
    <text x="705" y="285" font-size="12" fill="#9CA3AF">Import/export</text>
  </g>

  <g>
    <rect x="430" y="380" width="340" height="90" rx="18" fill="#0B2B66" stroke="#2E7BE5" stroke-width="2" />
    <text x="470" y="430" font-family="Verdana, sans-serif" font-size="16" fill="#E6EDF3">Local Storage (Browser)</text>
    <text x="470" y="452" font-family="Verdana, sans-serif" font-size="12" fill="#9CA3AF">All data stays on-device</text>
  </g>

  <g stroke="#6BB7FF" stroke-width="2" marker-end="url(#arrow)">
    <line x1="195" y1="170" x2="520" y2="380" />
    <line x1="495" y1="170" x2="600" y2="380" />
    <line x1="795" y1="170" x2="680" y2="380" />
    <line x1="1060" y1="170" x2="740" y2="380" />
    <line x1="395" y1="310" x2="560" y2="380" />
    <line x1="805" y1="310" x2="690" y2="380" />
  </g>
</svg>
