<svg xmlns="http://www.w3.org/2000/svg" width="1200" height="360" viewBox="0 0 1200 360" role="img" aria-label="Top Heroes Companion logo">
  <defs>
    <linearGradient id="sky" x1="0" y1="0" x2="1" y2="1">
      <stop offset="0%" stop-color="#0D1117" />
      <stop offset="100%" stop-color="#1A2635" />
    </linearGradient>
    <linearGradient id="accent" x1="0" y1="0" x2="1" y2="0">
      <stop offset="0%" stop-color="#6BB7FF" />
      <stop offset="100%" stop-color="#2E7BE5" />
    </linearGradient>
  </defs>

  <rect width="1200" height="360" fill="url(#sky)" />
  <rect x="60" y="60" width="1080" height="240" rx="28" fill="#111827" stroke="#2B3442" stroke-width="2" />

  <g transform="translate(120,95)">
    <rect x="0" y="10" width="120" height="120" rx="18" fill="url(#accent)" />
    <path d="M20 90 H105 V135 H62 L55 150 H20 Z" fill="#0B2B66" />
    <rect x="20" y="145" width="90" height="16" rx="8" fill="#081C3F" />
    <rect x="30" y="30" width="70" height="12" rx="6" fill="#081C3F" opacity="0.6" />
    <rect x="30" y="50" width="70" height="12" rx="6" fill="#081C3F" opacity="0.6" />
  </g>

  <text x="280" y="150" font-family="Georgia, 'Times New Roman', serif" font-size="48" fill="#E6EDF3">Top Heroes Companion</text>
  <text x="280" y="196" font-family="Verdana, sans-serif" font-size="18" fill="#9CA3AF">Guild operations kit for TBB — The Blue Boots</text>

  <g transform="translate(280,230)">
    <rect x="0" y="0" width="280" height="36" rx="18" fill="#0B2B66" />
    <text x="18" y="24" font-family="Verdana, sans-serif" font-size="14" fill="#9BD0FF">Roster • Events • Queues • Codes</text>
  </g>

  <g transform="translate(860,110)">
    <circle cx="90" cy="90" r="70" fill="#0B2B66" stroke="#2E7BE5" stroke-width="4" />
    <text x="90" y="84" text-anchor="middle" font-family="Verdana, sans-serif" font-size="14" fill="#9BD0FF">GUILD</text>
    <text x="90" y="110" text-anchor="middle" font-family="Verdana, sans-serif" font-size="24" fill="#E6EDF3">TBB</text>
    <text x="90" y="134" text-anchor="middle" font-family="Verdana, sans-serif" font-size="12" fill="#9CA3AF">The Blue Boots</text>
  </g>
</svg>
